<svg xmlns="http://www.w3.org/2000/svg" xmlns:xlink="http://www.w3.org/1999/xlink" width="500" height="500" preserveAspectRatio="xMidYMid meet" version="1.0" viewBox="0 0 375 375" zoomAndPan="magnify"><defs><clipPath id="acfde03180"><path d="M 93.320312 182.464844 L 132.714844 182.464844 L 132.714844 208.070312 L 93.320312 208.070312 Z M 93.320312 182.464844" clip-rule="nonzero"/></clipPath><clipPath id="01acce2065"><path d="M 94.648438 166.824219 L 133.820312 166.824219 L 133.820312 192.53125 L 94.648438 192.53125 Z M 94.648438 166.824219" clip-rule="nonzero"/></clipPath></defs><g fill="#050505" fill-opacity="1"><g><g><path d="M 8.503906 0.382812 C 12.457031 0.382812 15.730469 -1.609375 15.730469 -5.726562 C 15.730469 -10.003906 12.078125 -10.902344 9.1875 -11.640625 C 7.140625 -12.132812 5.507812 -12.539062 5.507812 -13.875 C 5.507812 -15.128906 6.84375 -15.703125 8.179688 -15.703125 C 9.730469 -15.703125 11.09375 -14.9375 11.09375 -13.277344 L 15.15625 -13.277344 C 15.15625 -17.09375 12.675781 -19.4375 8.289062 -19.4375 C 4.0625 -19.4375 1.363281 -17.363281 1.363281 -13.710938 C 1.363281 -9.597656 4.851562 -8.75 7.742188 -8.042969 C 9.8125 -7.578125 11.558594 -7.167969 11.558594 -5.671875 C 11.558594 -4.253906 10.03125 -3.433594 8.476562 -3.433594 C 6.789062 -3.433594 5.261719 -4.335938 5.261719 -6.160156 L 1.089844 -6.160156 C 1.089844 -2.070312 4.117188 0.382812 8.503906 0.382812 Z M 8.503906 0.382812" transform="translate(136.88528, 199.391102)"/></g></g></g><g fill="#050505" fill-opacity="1"><g><g><path d="M 9.105469 -3.542969 C 7.632812 -3.542969 6.816406 -4.363281 6.816406 -5.777344 L 6.816406 -11.503906 L 10.824219 -11.503906 L 10.824219 -14.722656 L 6.761719 -14.722656 L 6.761719 -18.539062 L 5.996094 -18.539062 L 0.191406 -12.375 L 0.191406 -11.503906 L 2.835938 -11.503906 L 2.835938 -5.234375 C 2.835938 -1.988281 4.824219 0 8.070312 0 L 10.902344 0 L 10.902344 -3.542969 Z M 9.105469 -3.542969" transform="translate(152.448757, 199.391102)"/></g></g></g><g fill="#050505" fill-opacity="1"><g><g><path d="M 16.191406 -7.386719 C 16.191406 -11.640625 13.085938 -15.128906 8.558594 -15.128906 C 4.199219 -15.128906 0.925781 -11.777344 0.925781 -7.359375 C 0.925781 -2.945312 4.226562 0.4375 8.558594 0.4375 C 11.996094 0.4375 14.800781 -1.609375 15.867188 -4.824219 L 11.695312 -4.824219 C 11.09375 -3.761719 9.949219 -3.109375 8.558594 -3.109375 C 6.625 -3.109375 5.316406 -4.226562 4.960938 -6.242188 L 16.109375 -6.242188 C 16.164062 -6.625 16.191406 -7.007812 16.191406 -7.386719 Z M 8.558594 -11.722656 C 10.359375 -11.722656 11.640625 -10.742188 12.210938 -8.941406 L 5.070312 -8.941406 C 5.535156 -10.6875 6.789062 -11.722656 8.558594 -11.722656 Z M 8.558594 -11.722656" transform="translate(162.860679, 199.391102)"/></g></g></g><g fill="#050505" fill-opacity="1"><g><g><path d="M 1.910156 0 L 5.886719 0 L 5.886719 -20.007812 L 1.910156 -20.007812 Z M 1.910156 0" transform="translate(178.669474, 199.391102)"/></g></g></g><g fill="#050505" fill-opacity="1"><g><g><path d="M 1.910156 0 L 5.886719 0 L 5.886719 -20.007812 L 1.910156 -20.007812 Z M 1.910156 0" transform="translate(185.1564, 199.391102)"/></g></g></g><g fill="#050505" fill-opacity="1"><g><g><path d="M 13.902344 -14.722656 L 13.492188 -13.332031 C 12.210938 -14.449219 10.550781 -15.128906 8.640625 -15.128906 C 4.226562 -15.128906 0.925781 -11.804688 0.925781 -7.359375 C 0.925781 -2.917969 4.226562 0.4375 8.640625 0.4375 C 10.523438 0.4375 12.160156 -0.21875 13.414062 -1.335938 L 13.765625 0 L 16.875 0 L 16.875 -14.722656 Z M 8.96875 -3.324219 C 6.652344 -3.324219 4.960938 -5.070312 4.960938 -7.359375 C 4.960938 -9.675781 6.652344 -11.394531 8.96875 -11.394531 C 11.285156 -11.394531 12.976562 -9.675781 12.976562 -7.359375 C 12.976562 -5.042969 11.285156 -3.324219 8.96875 -3.324219 Z M 8.96875 -3.324219" transform="translate(191.643326, 199.391102)"/></g></g></g><g fill="#050505" fill-opacity="1"><g><g><path d="M 9.433594 -14.800781 C 7.523438 -14.800781 6.214844 -14.203125 5.152344 -12.894531 L 4.445312 -14.722656 L 1.910156 -14.722656 L 1.910156 0 L 5.886719 0 L 5.886719 -7.632812 C 5.886719 -10.03125 6.761719 -11.039062 8.996094 -11.039062 L 10.742188 -11.039062 L 10.742188 -14.800781 Z M 9.433594 -14.800781" transform="translate(209.142038, 199.391102)"/></g></g></g><g fill="#050505" fill-opacity="1"><g><g><path d="M 8.503906 0.382812 C 12.457031 0.382812 15.730469 -1.609375 15.730469 -5.726562 C 15.730469 -10.003906 12.078125 -10.902344 9.1875 -11.640625 C 7.140625 -12.132812 5.507812 -12.539062 5.507812 -13.875 C 5.507812 -15.128906 6.84375 -15.703125 8.179688 -15.703125 C 9.730469 -15.703125 11.09375 -14.9375 11.09375 -13.277344 L 15.15625 -13.277344 C 15.15625 -17.09375 12.675781 -19.4375 8.289062 -19.4375 C 4.0625 -19.4375 1.363281 -17.363281 1.363281 -13.710938 C 1.363281 -9.597656 4.851562 -8.75 7.742188 -8.042969 C 9.8125 -7.578125 11.558594 -7.167969 11.558594 -5.671875 C 11.558594 -4.253906 10.03125 -3.433594 8.476562 -3.433594 C 6.789062 -3.433594 5.261719 -4.335938 5.261719 -6.160156 L 1.089844 -6.160156 C 1.089844 -2.070312 4.117188 0.382812 8.503906 0.382812 Z M 8.503906 0.382812" transform="translate(218.927038, 199.391102)"/></g></g></g><g fill="#050505" fill-opacity="1"><g><g><path d="M 12.078125 -14.722656 L 8.394531 -5.644531 L 4.472656 -14.722656 L 0.136719 -14.722656 L 6.378906 -1.117188 L 6.324219 -1.007812 C 5.425781 1.226562 4.933594 1.746094 3 1.746094 L 1.636719 1.746094 L 1.636719 5.316406 L 3.269531 5.316406 C 6.570312 5.316406 8.125 3.816406 9.894531 -0.191406 L 16.300781 -14.722656 Z M 12.078125 -14.722656" transform="translate(234.490519, 199.391102)"/></g></g></g><g fill="#050505" fill-opacity="1"><g><g><path d="M 10.277344 -15.046875 C 8.289062 -15.046875 6.515625 -14.203125 5.398438 -12.894531 L 4.632812 -14.722656 L 1.910156 -14.722656 L 1.910156 0 L 5.886719 0 L 5.886719 -7.714844 C 5.886719 -10.085938 7.140625 -11.558594 9.1875 -11.558594 C 10.902344 -11.558594 11.75 -10.496094 11.75 -8.261719 L 11.75 0 L 15.730469 0 L 15.730469 -8.914062 C 15.730469 -12.648438 13.628906 -15.046875 10.277344 -15.046875 Z M 10.277344 -15.046875" transform="translate(249.590627, 199.391102)"/></g></g></g><g fill="#050505" fill-opacity="1"><g><g><path d="M 8.75 0.4375 C 12.59375 0.4375 15.621094 -2.070312 16.300781 -5.777344 L 12.292969 -5.777344 C 11.613281 -4.199219 10.359375 -3.324219 8.75 -3.324219 C 6.625 -3.324219 4.960938 -5.097656 4.960938 -7.359375 C 4.960938 -9.648438 6.597656 -11.394531 8.75 -11.394531 C 10.332031 -11.394531 11.667969 -10.523438 12.292969 -9.078125 L 16.246094 -9.078125 C 15.539062 -12.703125 12.59375 -15.128906 8.777344 -15.128906 C 4.308594 -15.128906 0.925781 -11.804688 0.925781 -7.386719 C 0.925781 -2.972656 4.308594 0.4375 8.75 0.4375 Z M 8.75 0.4375" transform="translate(265.753764, 199.391102)"/></g></g></g><g clip-path="url(#acfde03180)"><path fill="#5056fd" fill-opacity="1" fill-rule="nonzero" d="M 118.964844 198.292969 C 111.613281 203.25 101.636719 201.308594 96.683594 193.960938 C 94.316406 190.453125 93.527344 186.347656 94.140625 182.476562 C 92.515625 188.003906 93.273438 194.1875 96.746094 199.339844 C 102.933594 208.511719 115.382812 210.933594 124.554688 204.746094 C 128.730469 201.929688 131.503906 197.8125 132.703125 193.300781 C 122.097656 193.164062 110.425781 193.210938 110.425781 193.210938 L 118.964844 198.292969"/></g><g clip-path="url(#01acce2065)"><path fill="#5056fd" fill-opacity="1" fill-rule="nonzero" d="M 108.390625 176.703125 C 115.738281 171.746094 125.714844 173.6875 130.671875 181.035156 C 133.039062 184.542969 133.828125 188.648438 133.214844 192.519531 C 134.839844 186.992188 134.082031 180.808594 130.609375 175.660156 C 124.421875 166.484375 111.972656 164.0625 102.800781 170.25 C 98.625 173.066406 95.851562 177.183594 94.652344 181.695312 C 105.257812 181.832031 116.929688 181.785156 116.929688 181.785156 L 108.390625 176.703125"/></g></svg>